<svg width="20" height="21" viewBox="0 0 20 21" fill="none" xmlns="http://www.w3.org/2000/svg">
<g clip-path="url(#clip0_1_5024)">
<path d="M18.3437 3.22559H13.4894C12.6779 3.22504 11.8905 3.50088 11.2568 4.00768C10.6231 4.51448 10.1809 5.22201 10.0031 6.01371C9.82487 5.22222 9.38258 4.51495 8.74897 4.00823C8.11537 3.5015 7.32818 3.22549 6.51687 3.22559H1.66624C1.22421 3.22575 0.80033 3.40142 0.487766 3.71399C0.175202 4.02655 -0.000467592 4.45043 -0.00063324 4.89246V13.4275C-0.000467592 13.8695 0.175202 14.2934 0.487766 14.6059C0.80033 14.9185 1.22421 15.0942 1.66624 15.0943H4.78062C8.32937 15.0943 9.38812 15.9412 9.89499 17.6987C9.91937 17.7962 10.0756 17.7962 10.1031 17.6987C10.6137 15.9418 11.6725 15.0943 15.2175 15.0943H18.3319C18.7739 15.0942 19.1978 14.9185 19.5103 14.6059C19.8229 14.2934 19.9986 13.8695 19.9987 13.4275V4.89621C19.9988 4.45567 19.8247 4.03297 19.5145 3.72018C19.2043 3.40738 18.783 3.22984 18.3425 3.22621L18.3437 3.22559ZM8.40249 12.4406C8.40266 12.4566 8.39964 12.4724 8.3936 12.4872C8.38757 12.502 8.37864 12.5154 8.36735 12.5267C8.35606 12.538 8.34263 12.5469 8.32784 12.5529C8.31305 12.559 8.29721 12.562 8.28124 12.5618H2.71499C2.69905 12.5619 2.68324 12.5588 2.66849 12.5528C2.65375 12.5467 2.64035 12.5378 2.62907 12.5265C2.61779 12.5152 2.60887 12.5018 2.6028 12.4871C2.59674 12.4723 2.59366 12.4565 2.59374 12.4406V11.6456C2.59374 11.58 2.64562 11.5243 2.71499 11.5243H8.28437C8.34999 11.5243 8.40562 11.5762 8.40562 11.6456V12.4406H8.40249ZM8.40249 10.3262C8.40257 10.3422 8.3995 10.358 8.39343 10.3727C8.38737 10.3875 8.37844 10.4009 8.36716 10.4121C8.35589 10.4234 8.34249 10.4323 8.32774 10.4384C8.31299 10.4445 8.29719 10.4475 8.28124 10.4475H2.71499C2.69905 10.4475 2.68324 10.4445 2.66849 10.4384C2.65375 10.4323 2.64035 10.4234 2.62907 10.4121C2.61779 10.4009 2.60887 10.3875 2.6028 10.3727C2.59674 10.358 2.59366 10.3422 2.59374 10.3262V9.53121C2.59374 9.46496 2.64562 9.40996 2.71499 9.40996H8.28437C8.34999 9.40996 8.40562 9.46184 8.40562 9.53121V10.3262H8.40249ZM8.40249 8.21184C8.40257 8.22778 8.3995 8.24359 8.39343 8.25833C8.38737 8.27308 8.37844 8.28648 8.36716 8.29776C8.35589 8.30903 8.34249 8.31796 8.32774 8.32403C8.31299 8.33009 8.29719 8.33317 8.28124 8.33309H2.71499C2.69905 8.33317 2.68324 8.33009 2.66849 8.32403C2.65375 8.31796 2.64035 8.30903 2.62907 8.29776C2.61779 8.28648 2.60887 8.27308 2.6028 8.25833C2.59674 8.24359 2.59366 8.22778 2.59374 8.21184V7.41684C2.59374 7.35121 2.64562 7.29559 2.71499 7.29559H8.28437C8.34999 7.29559 8.40562 7.34746 8.40562 7.41684V8.21184H8.40249ZM17.4062 12.4375C17.4063 12.4534 17.4032 12.4692 17.3972 12.484C17.3911 12.4987 17.3822 12.5121 17.3709 12.5234C17.3596 12.5347 17.3462 12.5436 17.3315 12.5497C17.3167 12.5557 17.3009 12.5588 17.285 12.5587H11.7187C11.7028 12.5588 11.687 12.5557 11.6722 12.5497C11.6575 12.5436 11.6441 12.5347 11.6328 12.5234C11.6215 12.5121 11.6126 12.4987 11.6066 12.484C11.6005 12.4692 11.5974 12.4534 11.5975 12.4375V11.6425C11.5975 11.5768 11.6494 11.5212 11.7187 11.5212H17.2881C17.3544 11.5212 17.4094 11.5731 17.4094 11.6425V12.4375H17.4062ZM17.4062 10.3231C17.4064 10.3391 17.4034 10.3549 17.3974 10.3697C17.3913 10.3845 17.3824 10.3979 17.3711 10.4092C17.3598 10.4205 17.3464 10.4294 17.3316 10.4354C17.3168 10.4415 17.301 10.4445 17.285 10.4443H11.7187C11.7028 10.4444 11.687 10.4413 11.6722 10.4353C11.6575 10.4292 11.6441 10.4203 11.6328 10.409C11.6215 10.3977 11.6126 10.3843 11.6066 10.3696C11.6005 10.3548 11.5974 10.339 11.5975 10.3231V9.52809C11.5975 9.46246 11.6494 9.40684 11.7187 9.40684H17.2881C17.3544 9.40684 17.4094 9.45871 17.4094 9.52809V10.3231H17.4062ZM17.4062 8.20809C17.4063 8.22403 17.4032 8.23984 17.3972 8.25458C17.3911 8.26933 17.3822 8.28273 17.3709 8.29401C17.3596 8.30528 17.3462 8.31421 17.3315 8.32028C17.3167 8.32634 17.3009 8.32942 17.285 8.32934H11.7187C11.7028 8.32942 11.687 8.32634 11.6722 8.32028C11.6575 8.31421 11.6441 8.30528 11.6328 8.29401C11.6215 8.28273 11.6126 8.26933 11.6066 8.25458C11.6005 8.23984 11.5974 8.22403 11.5975 8.20809V7.41621C11.5975 7.35059 11.6494 7.29496 11.7187 7.29496H17.2881C17.3544 7.29496 17.4094 7.34684 17.4094 7.41621V8.20809H17.4062Z" fill="white"/>
</g>
<defs>
<clipPath id="clip0_1_5024">
<rect width="20" height="20" fill="white" transform="translate(0 0.5)"/>
</clipPath>
</defs>
</svg>
