<svg width="131" height="31" viewBox="0 0 131 31" fill="none" xmlns="http://www.w3.org/2000/svg">
<rect width="131" height="31" rx="15.5" fill="#FAF6EB"/>
<path d="M13.268 20.072C12.796 20.072 12.352 19.968 11.936 19.76C11.528 19.552 11.2 19.256 10.952 18.872L11.468 18.272C11.7 18.608 11.968 18.864 12.272 19.04C12.576 19.216 12.912 19.304 13.28 19.304C14.32 19.304 14.84 18.688 14.84 17.456V12.368H11.768V11.6H15.716V17.42C15.716 18.308 15.508 18.972 15.092 19.412C14.684 19.852 14.076 20.072 13.268 20.072ZM20.7677 20.06C20.1597 20.06 19.6117 19.924 19.1237 19.652C18.6437 19.372 18.2637 18.992 17.9837 18.512C17.7037 18.024 17.5637 17.468 17.5637 16.844C17.5637 16.212 17.7037 15.656 17.9837 15.176C18.2637 14.696 18.6437 14.32 19.1237 14.048C19.6037 13.776 20.1517 13.64 20.7677 13.64C21.3917 13.64 21.9437 13.776 22.4237 14.048C22.9117 14.32 23.2917 14.696 23.5637 15.176C23.8437 15.656 23.9837 16.212 23.9837 16.844C23.9837 17.468 23.8437 18.024 23.5637 18.512C23.2917 18.992 22.9117 19.372 22.4237 19.652C21.9357 19.924 21.3837 20.06 20.7677 20.06ZM20.7677 19.304C21.2237 19.304 21.6277 19.204 21.9797 19.004C22.3317 18.796 22.6077 18.508 22.8077 18.14C23.0157 17.764 23.1197 17.332 23.1197 16.844C23.1197 16.348 23.0157 15.916 22.8077 15.548C22.6077 15.18 22.3317 14.896 21.9797 14.696C21.6277 14.488 21.2277 14.384 20.7797 14.384C20.3317 14.384 19.9317 14.488 19.5797 14.696C19.2277 14.896 18.9477 15.18 18.7397 15.548C18.5317 15.916 18.4277 16.348 18.4277 16.844C18.4277 17.332 18.5317 17.764 18.7397 18.14C18.9477 18.508 19.2277 18.796 19.5797 19.004C19.9317 19.204 20.3277 19.304 20.7677 19.304ZM25.7232 20V13.7H26.5752V20H25.7232ZM26.1552 12.308C25.9792 12.308 25.8312 12.248 25.7112 12.128C25.5912 12.008 25.5312 11.864 25.5312 11.696C25.5312 11.528 25.5912 11.388 25.7112 11.276C25.8312 11.156 25.9792 11.096 26.1552 11.096C26.3312 11.096 26.4792 11.152 26.5992 11.264C26.7192 11.376 26.7792 11.516 26.7792 11.684C26.7792 11.86 26.7192 12.008 26.5992 12.128C26.4872 12.248 26.3392 12.308 26.1552 12.308ZM32.1618 13.64C32.6738 13.64 33.1218 13.74 33.5058 13.94C33.8978 14.132 34.2018 14.428 34.4178 14.828C34.6418 15.228 34.7538 15.732 34.7538 16.34V20H33.9018V16.424C33.9018 15.76 33.7338 15.26 33.3978 14.924C33.0698 14.58 32.6058 14.408 32.0058 14.408C31.5578 14.408 31.1658 14.5 30.8298 14.684C30.5018 14.86 30.2458 15.12 30.0618 15.464C29.8858 15.8 29.7978 16.208 29.7978 16.688V20H28.9458V13.7H29.7618V15.428L29.6298 15.104C29.8298 14.648 30.1498 14.292 30.5898 14.036C31.0298 13.772 31.5538 13.64 32.1618 13.64ZM44.1438 20V18.608L44.1078 18.38V16.052C44.1078 15.516 43.9558 15.104 43.6518 14.816C43.3558 14.528 42.9118 14.384 42.3198 14.384C41.9118 14.384 41.5238 14.452 41.1558 14.588C40.7878 14.724 40.4758 14.904 40.2198 15.128L39.8358 14.492C40.1558 14.22 40.5398 14.012 40.9878 13.868C41.4358 13.716 41.9078 13.64 42.4038 13.64C43.2198 13.64 43.8478 13.844 44.2878 14.252C44.7358 14.652 44.9598 15.264 44.9598 16.088V20H44.1438ZM41.9718 20.06C41.4998 20.06 41.0878 19.984 40.7358 19.832C40.3918 19.672 40.1278 19.456 39.9438 19.184C39.7598 18.904 39.6678 18.584 39.6678 18.224C39.6678 17.896 39.7438 17.6 39.8958 17.336C40.0558 17.064 40.3118 16.848 40.6638 16.688C41.0238 16.52 41.5038 16.436 42.1038 16.436H44.2758V17.072H42.1278C41.5198 17.072 41.0958 17.18 40.8558 17.396C40.6238 17.612 40.5078 17.88 40.5078 18.2C40.5078 18.56 40.6478 18.848 40.9278 19.064C41.2078 19.28 41.5998 19.388 42.1038 19.388C42.5838 19.388 42.9958 19.28 43.3398 19.064C43.6918 18.84 43.9478 18.52 44.1078 18.104L44.2998 18.692C44.1398 19.108 43.8598 19.44 43.4598 19.688C43.0678 19.936 42.5718 20.06 41.9718 20.06ZM54.2426 20.072C53.6106 20.072 53.0266 19.968 52.4906 19.76C51.9546 19.544 51.4906 19.244 51.0986 18.86C50.7066 18.476 50.3986 18.024 50.1746 17.504C49.9586 16.984 49.8506 16.416 49.8506 15.8C49.8506 15.184 49.9586 14.616 50.1746 14.096C50.3986 13.576 50.7066 13.124 51.0986 12.74C51.4986 12.356 51.9666 12.06 52.5026 11.852C53.0386 11.636 53.6226 11.528 54.2546 11.528C54.8626 11.528 55.4346 11.632 55.9706 11.84C56.5066 12.04 56.9586 12.344 57.3266 12.752L56.7626 13.316C56.4186 12.964 56.0386 12.712 55.6226 12.56C55.2066 12.4 54.7586 12.32 54.2786 12.32C53.7746 12.32 53.3066 12.408 52.8746 12.584C52.4426 12.752 52.0666 12.996 51.7466 13.316C51.4266 13.628 51.1746 13.996 50.9906 14.42C50.8146 14.836 50.7266 15.296 50.7266 15.8C50.7266 16.304 50.8146 16.768 50.9906 17.192C51.1746 17.608 51.4266 17.976 51.7466 18.296C52.0666 18.608 52.4426 18.852 52.8746 19.028C53.3066 19.196 53.7746 19.28 54.2786 19.28C54.7586 19.28 55.2066 19.2 55.6226 19.04C56.0386 18.88 56.4186 18.624 56.7626 18.272L57.3266 18.836C56.9586 19.244 56.5066 19.552 55.9706 19.76C55.4346 19.968 54.8586 20.072 54.2426 20.072ZM59.0396 20V13.7H59.8916V20H59.0396ZM59.4716 12.308C59.2956 12.308 59.1476 12.248 59.0276 12.128C58.9076 12.008 58.8476 11.864 58.8476 11.696C58.8476 11.528 58.9076 11.388 59.0276 11.276C59.1476 11.156 59.2956 11.096 59.4716 11.096C59.6476 11.096 59.7956 11.152 59.9156 11.264C60.0356 11.376 60.0956 11.516 60.0956 11.684C60.0956 11.86 60.0356 12.008 59.9156 12.128C59.8036 12.248 59.6556 12.308 59.4716 12.308ZM62.2622 20V13.7H63.0782V15.416L62.9942 15.116C63.1702 14.636 63.4662 14.272 63.8822 14.024C64.2982 13.768 64.8142 13.64 65.4302 13.64V14.468C65.3982 14.468 65.3662 14.468 65.3342 14.468C65.3022 14.46 65.2702 14.456 65.2382 14.456C64.5742 14.456 64.0542 14.66 63.6782 15.068C63.3022 15.468 63.1142 16.04 63.1142 16.784V20H62.2622ZM69.5423 20.06C68.9183 20.06 68.3583 19.924 67.8623 19.652C67.3743 19.372 66.9903 18.992 66.7103 18.512C66.4303 18.024 66.2903 17.468 66.2903 16.844C66.2903 16.212 66.4303 15.656 66.7103 15.176C66.9903 14.696 67.3743 14.32 67.8623 14.048C68.3583 13.776 68.9183 13.64 69.5423 13.64C70.0783 13.64 70.5623 13.744 70.9943 13.952C71.4263 14.16 71.7663 14.472 72.0143 14.888L71.3783 15.32C71.1623 15 70.8943 14.764 70.5743 14.612C70.2543 14.46 69.9063 14.384 69.5303 14.384C69.0823 14.384 68.6783 14.488 68.3183 14.696C67.9583 14.896 67.6743 15.18 67.4663 15.548C67.2583 15.916 67.1543 16.348 67.1543 16.844C67.1543 17.34 67.2583 17.772 67.4663 18.14C67.6743 18.508 67.9583 18.796 68.3183 19.004C68.6783 19.204 69.0823 19.304 69.5303 19.304C69.9063 19.304 70.2543 19.228 70.5743 19.076C70.8943 18.924 71.1623 18.692 71.3783 18.38L72.0143 18.812C71.7663 19.22 71.4263 19.532 70.9943 19.748C70.5623 19.956 70.0783 20.06 69.5423 20.06ZM73.5943 20V11.096H74.4463V20H73.5943ZM79.4929 20.06C78.8369 20.06 78.2609 19.924 77.7649 19.652C77.2689 19.372 76.8809 18.992 76.6009 18.512C76.3209 18.024 76.1809 17.468 76.1809 16.844C76.1809 16.22 76.3129 15.668 76.5769 15.188C76.8489 14.708 77.2169 14.332 77.6809 14.06C78.1529 13.78 78.6809 13.64 79.2649 13.64C79.8569 13.64 80.3809 13.776 80.8369 14.048C81.3009 14.312 81.6649 14.688 81.9289 15.176C82.1929 15.656 82.3249 16.212 82.3249 16.844C82.3249 16.884 82.3209 16.928 82.3129 16.976C82.3129 17.016 82.3129 17.06 82.3129 17.108H76.8289V16.472H81.8569L81.5209 16.724C81.5209 16.268 81.4209 15.864 81.2209 15.512C81.0289 15.152 80.7649 14.872 80.4289 14.672C80.0929 14.472 79.7049 14.372 79.2649 14.372C78.8329 14.372 78.4449 14.472 78.1009 14.672C77.7569 14.872 77.4889 15.152 77.2969 15.512C77.1049 15.872 77.0089 16.284 77.0089 16.748V16.88C77.0089 17.36 77.1129 17.784 77.3209 18.152C77.5369 18.512 77.8329 18.796 78.2089 19.004C78.5929 19.204 79.0289 19.304 79.5169 19.304C79.9009 19.304 80.2569 19.236 80.5849 19.1C80.9209 18.964 81.2089 18.756 81.4489 18.476L81.9289 19.028C81.6489 19.364 81.2969 19.62 80.8729 19.796C80.4569 19.972 79.9969 20.06 79.4929 20.06Z" fill="black"/>
<circle cx="101.5" cy="15.5" r="7.5" fill="#006754" fill-opacity="0.11"/>
<path d="M102.583 15.5L117.625 15.5" stroke="#004B40" stroke-width="1.5" stroke-linecap="round" stroke-linejoin="round"/>
<path d="M112.083 9.95837L117.625 15.5L112.083 21.0417" stroke="#004B40" stroke-width="1.5" stroke-linecap="round" stroke-linejoin="round"/>
</svg>
