<svg width="327" height="257" viewBox="0 0 327 257" fill="none" xmlns="http://www.w3.org/2000/svg">
<g clip-path="url(#clip0_1_517)">
<rect width="327" height="295" fill="url(#paint0_linear_1_517)"/>
<g style="mix-blend-mode:soft-light" opacity="0.2">
<path opacity="0.25" d="M220.056 295C297.288 295 359.896 280.434 359.896 262.467C359.896 244.5 297.288 229.934 220.056 229.934C142.824 229.934 80.2146 244.5 80.2146 262.467C80.2146 280.434 142.824 295 220.056 295Z" fill="#042030"/>
<path d="M329.574 105.465L220.056 142.884L110.426 105.465L58 181.634L220.056 237.04L382 181.634L329.574 105.465Z" fill="#18392B"/>
<path opacity="0.45" d="M77.1046 178.525L211.503 229.934L165.297 184.188C165.297 184.188 89.4337 165.868 77.1046 178.525Z" fill="#18392B"/>
<path opacity="0.45" d="M363.007 178.525L228.608 229.934L274.815 184.188C274.703 184.188 350.566 165.868 363.007 178.525Z" fill="#18392B"/>
<path d="M220.056 237.04L58 181.635V188.852L220.056 244.258L382 188.852V181.635L220.056 237.04Z" fill="#994EF8"/>
<path d="M133.752 270.35L152.523 221.162L212.947 241.815L133.752 270.35Z" fill="#18392B"/>
<path opacity="0.45" d="M138.972 256.138L212.947 241.815L152.523 221.162L138.972 256.138Z" fill="#18392B"/>
<path d="M220.056 239.261L133.752 270.351L140.194 277.124L220.056 248.699L299.806 277.124L306.359 270.351L220.056 239.261Z" fill="#994EF8"/>
<path d="M306.359 270.35L287.477 221.162L227.053 241.815L306.359 270.35Z" fill="#18392B"/>
<path opacity="0.45" d="M301.028 256.138L227.053 241.815L287.477 221.162L301.028 256.138Z" fill="#18392B"/>
<path d="M220.055 248.699C223.307 248.699 225.942 246.064 225.942 242.814C225.942 239.564 223.307 236.929 220.055 236.929C216.804 236.929 214.169 239.564 214.169 242.814C214.169 246.064 216.804 248.699 220.055 248.699Z" fill="white" fill-opacity="0.5"/>
<path d="M324.909 105.465L220.056 157.651L115.203 105.465C110.427 111.794 71.9952 175.861 71.9952 175.861C72.4395 175.861 72.7728 175.972 73.217 175.972C169.628 185.632 196.397 215.944 205.283 223.272C214.169 230.711 220.167 229.934 220.167 229.934C220.167 229.934 226.165 230.711 235.05 223.272C243.936 215.944 270.705 185.632 367.116 175.972C367.561 175.972 367.894 175.861 368.338 175.861C368.116 175.861 329.574 111.905 324.909 105.465Z" fill="#F5B304"/>
<path d="M368.116 175.861C367.672 175.861 367.338 175.972 366.894 175.972C270.483 185.632 243.714 215.944 234.828 223.272C225.942 230.711 219.944 229.934 219.944 229.934C219.944 229.934 213.947 230.711 205.061 223.272C196.175 215.944 169.406 185.632 72.9949 175.972C72.5506 175.972 72.2173 175.861 71.7731 175.861C70.9955 177.082 71.7731 177.97 71.7731 177.97C169.184 187.408 195.064 217.831 203.95 225.271C212.836 232.599 219.833 232.044 219.833 232.044C219.833 232.044 226.831 232.599 235.717 225.271C244.603 217.942 270.483 187.519 367.894 177.97C368.116 177.97 368.893 177.082 368.116 175.861Z" fill="#994EF8"/>
<path d="M320.91 99.3581C267.262 86.4782 219.944 130.559 219.944 130.559C219.944 130.559 172.627 86.4782 118.979 99.3581C118.979 99.3581 103.762 122.675 82.7693 162.314C82.7693 162.314 188.4 174.195 219.944 218.498C251.489 174.195 357.12 162.314 357.12 162.314C336.127 122.675 320.91 99.3581 320.91 99.3581Z" fill="#F5EFFB"/>
<path d="M357.12 162.314C357.12 162.314 251.489 174.195 219.944 218.498C188.511 174.195 82.8803 162.314 82.8803 162.314C82.8803 162.314 82.8803 165.868 76.9934 172.863C76.9934 172.863 172.849 179.747 207.726 219.497C215.946 228.824 219.944 227.714 219.944 227.714C219.944 227.714 224.054 228.824 232.162 219.497C266.928 179.747 362.895 172.863 362.895 172.863C357.12 165.757 357.12 162.314 357.12 162.314Z" fill="#DFCBF4"/>
<path d="M314.912 104.022C314.912 104.022 274.815 93.8064 219.944 136.332C165.185 93.9175 124.977 104.022 124.977 104.022L97.8752 156.652C180.291 162.314 219.944 203.952 219.944 203.952C219.944 203.952 259.598 162.314 342.014 156.652L314.912 104.022ZM220.056 198.956C220.056 198.956 182.957 160.982 104.317 153.543L127.087 106.242C127.087 106.242 166.518 98.5809 220.056 138.775C273.593 98.5809 313.024 106.242 313.024 106.242L335.794 153.543C257.154 160.982 220.056 198.956 220.056 198.956Z" fill="#D0DED8"/>
<path opacity="0.2" d="M230.163 175.965C244.973 165.046 291.253 140.885 322.354 144.216" stroke="#D0DED8" stroke-width="3" stroke-linecap="round"/>
<path opacity="0.2" d="M230.163 145.326C243.307 135.038 277.48 114.881 309.025 116.555" stroke="#D0DED8" stroke-width="3" stroke-linecap="round"/>
<path opacity="0.2" d="M230.163 160.871C244.418 149.792 281.479 128.084 315.689 129.887" stroke="#D0DED8" stroke-width="3" stroke-linecap="round"/>
<path opacity="0.2" d="M211.281 175.965C196.471 165.046 150.191 140.885 119.09 144.216" stroke="#D0DED8" stroke-width="3" stroke-linecap="round"/>
<path opacity="0.2" d="M211.281 145.326C198.137 135.038 163.964 114.881 132.419 116.555" stroke="#D0DED8" stroke-width="3" stroke-linecap="round"/>
<path opacity="0.2" d="M211.281 160.871C197.026 149.792 159.965 128.084 125.755 129.887" stroke="#D0DED8" stroke-width="3" stroke-linecap="round"/>
<path d="M220.055 130.559C220.055 130.559 221.166 126.672 223.277 127.783C223.277 127.783 221.944 190.739 224.165 215.278C224.721 221.384 230.052 229.712 232.162 232.821H229.386L228.608 235.375C228.608 235.375 220.389 221.495 220.055 216.055C218.389 191.627 219.278 136.443 220.055 130.559Z" fill="#54DAF5"/>
</g>
</g>
<defs>
<linearGradient id="paint0_linear_1_517" x1="0" y1="0" x2="293.443" y2="325.274" gradientUnits="userSpaceOnUse">
<stop stop-color="#D0DED8"/>
<stop offset="1" stop-color="#588B76"/>
</linearGradient>
<clipPath id="clip0_1_517">
<rect width="327" height="257" rx="20" fill="white"/>
</clipPath>
</defs>
</svg>
