<svg width="173" height="97" viewBox="0 0 173 97" fill="none" xmlns="http://www.w3.org/2000/svg">
<path opacity="0.25" d="M103.035 126C152.14 126 191.947 116.731 191.947 105.297C191.947 93.8634 152.14 84.5945 103.035 84.5945C53.931 84.5945 14.1241 93.8634 14.1241 105.297C14.1241 116.731 53.931 126 103.035 126Z" fill="#042030"/>
<path d="M172.667 5.38672L103.035 29.1985L33.3329 5.38672L0 53.8581L103.035 89.1164L206 53.8581L172.667 5.38672Z" fill="#18392B"/>
<path opacity="0.45" d="M12.1467 51.8797L97.5975 84.5944L68.2194 55.4833C68.2194 55.4833 19.9856 43.8247 12.1467 51.8797Z" fill="#18392B"/>
<path opacity="0.45" d="M193.924 51.8797L108.473 84.5944L137.851 55.4833C137.781 55.4833 186.014 43.8247 193.924 51.8797Z" fill="#18392B"/>
<path d="M103.035 89.1165L0 53.8582V58.4509L103.035 93.7093L206 58.4509V53.8582L103.035 89.1165Z" fill="#588B76"/>
<path d="M48.1632 110.314L60.0981 79.0125L98.5156 92.1548L48.1632 110.314Z" fill="#18392B"/>
<path opacity="0.45" d="M51.4823 101.27L98.5156 92.1548L60.0981 79.0125L51.4823 101.27Z" fill="#18392B"/>
<path d="M103.035 90.5298L48.1632 110.314L52.2592 114.624L103.035 96.5357L153.741 114.624L157.907 110.314L103.035 90.5298Z" fill="#588B76"/>
<path d="M157.907 110.314L145.902 79.0125L107.484 92.1548L157.907 110.314Z" fill="#18392B"/>
<path opacity="0.45" d="M154.518 101.27L107.484 92.1548L145.902 79.0125L154.518 101.27Z" fill="#18392B"/>
<path d="M103.035 96.5357C105.102 96.5357 106.778 94.859 106.778 92.7908C106.778 90.7225 105.102 89.0459 103.035 89.0459C100.968 89.0459 99.2924 90.7225 99.2924 92.7908C99.2924 94.859 100.968 96.5357 103.035 96.5357Z" fill="white" fill-opacity="0.5"/>
<path d="M169.701 5.38672L103.035 38.596L36.3696 5.38672C33.3329 9.41422 8.89819 50.1839 8.89819 50.1839C9.18067 50.1839 9.39253 50.2545 9.67501 50.2545C70.9736 56.4018 87.9932 75.6914 93.6428 80.3549C99.2924 85.0889 103.106 84.5943 103.106 84.5943C103.106 84.5943 106.919 85.0889 112.569 80.3549C118.219 75.6914 135.238 56.4018 196.537 50.2545C196.819 50.2545 197.031 50.1839 197.314 50.1839C197.172 50.1839 172.667 9.48488 169.701 5.38672Z" fill="#F5B304"/>
<path d="M197.172 50.1841C196.89 50.1841 196.678 50.2547 196.396 50.2547C135.097 56.402 118.077 75.6916 112.428 80.3551C106.778 85.0891 102.965 84.5945 102.965 84.5945C102.965 84.5945 99.1512 85.0891 93.5016 80.3551C87.8519 75.6916 70.8324 56.402 9.53377 50.2547C9.25129 50.2547 9.03943 50.1841 8.75695 50.1841C8.26261 50.9613 8.75695 51.5266 8.75695 51.5266C70.6911 57.5325 87.1457 76.8928 92.7954 81.6269C98.445 86.2903 102.894 85.937 102.894 85.937C102.894 85.937 107.343 86.2903 112.993 81.6269C118.642 76.9635 135.097 57.6032 197.031 51.5266C197.172 51.5266 197.667 50.9613 197.172 50.1841Z" fill="#588B76"/>
<path d="M167.159 1.50062C133.049 -6.69571 102.965 21.3555 102.965 21.3555C102.965 21.3555 72.8804 -6.69571 38.7707 1.50062C38.7707 1.50062 29.0957 16.3388 15.7484 41.5637C15.7484 41.5637 82.9085 49.1241 102.965 77.3166C123.021 49.1241 190.181 41.5637 190.181 41.5637C176.834 16.3388 167.159 1.50062 167.159 1.50062Z" fill="#F5EFFB"/>
<path d="M190.181 41.5637C190.181 41.5637 123.021 49.1241 102.965 77.3167C82.9791 49.1241 15.819 41.5637 15.819 41.5637C15.819 41.5637 15.819 43.8248 12.0761 48.2762C12.0761 48.2762 73.0216 52.657 95.1964 77.9526C100.422 83.8879 102.965 83.1813 102.965 83.1813C102.965 83.1813 105.578 83.8879 110.733 77.9526C132.837 52.657 193.853 48.2762 193.853 48.2762C190.181 43.7541 190.181 41.5637 190.181 41.5637Z" fill="#DFCBF4"/>
<path d="M163.345 4.46826C163.345 4.46826 137.851 -2.03228 102.965 25.0297C68.1488 -1.96162 42.5842 4.46826 42.5842 4.46826L25.3528 37.9602C77.7532 41.5637 102.965 68.0605 102.965 68.0605C102.965 68.0605 128.176 41.5637 180.577 37.9602L163.345 4.46826ZM103.035 64.8809C103.035 64.8809 79.4481 40.7158 29.4488 35.9817L43.926 5.88142C43.926 5.88142 68.9963 1.00602 103.035 26.5842C137.074 1.00602 162.145 5.88142 162.145 5.88142L176.622 35.9817C126.623 40.7158 103.035 64.8809 103.035 64.8809Z" fill="#D0DED8"/>
<path opacity="0.2" d="M109.462 50.25C118.878 43.302 148.303 27.9265 168.077 30.0462" stroke="#D0DED8" stroke-width="3" stroke-linecap="round"/>
<path opacity="0.2" d="M109.462 30.7529C117.819 24.2062 139.546 11.3791 159.602 12.4443" stroke="#D0DED8" stroke-width="3" stroke-linecap="round"/>
<path opacity="0.2" d="M109.462 40.6451C118.525 33.5948 142.088 19.7809 163.84 20.9281" stroke="#D0DED8" stroke-width="3" stroke-linecap="round"/>
<path opacity="0.2" d="M97.4563 50.25C88.0402 43.302 58.615 27.9265 38.8413 30.0462" stroke="#D0DED8" stroke-width="3" stroke-linecap="round"/>
<path opacity="0.2" d="M97.4563 30.7529C89.0995 24.2062 67.372 11.3791 47.3157 12.4443" stroke="#D0DED8" stroke-width="3" stroke-linecap="round"/>
<path opacity="0.2" d="M97.4563 40.6451C88.3933 33.5948 64.8296 19.7809 43.0785 20.9281" stroke="#D0DED8" stroke-width="3" stroke-linecap="round"/>
<path d="M103.035 21.3556C103.035 21.3556 103.742 18.8825 105.083 19.5891C105.083 19.5891 104.236 59.6522 105.648 75.2676C106.001 79.1538 109.391 84.4532 110.733 86.4316H108.967L108.473 88.0567C108.473 88.0567 103.247 79.2245 103.035 75.7622C101.976 60.2175 102.541 25.1004 103.035 21.3556Z" fill="#54DAF5"/>
</svg>
